# xmcd
#
# Track frame offsets:
#	150
#	14604
#	28506
#	42186
#	54539
#	70229
#	83965
#	98254
#	114051
#	127766
#	143789
#	158434
#	171471
#	190238
#	205708
#
# Disc length: 2940 seconds
#
# Revision: 1
# Processed by: cddbd v1.5.2PL0 Copyright (c) Steve Scherf et al.
# Submitted via: audiograbber 1.83.01
#
DISCID=b70b7a0f
DTITLE=CHARTBUSTER - CB60111
DYEAR=1900
DGENRE=
TTITLE0=Marty Stuart - Burn Me Down
TTITLE1=Kathy Mattea - Come From the Heart
TTITLE2=Hal Ketchum - Five o'clock World
TTITLE3=McBride and the Ride - Going Out Of My Mind
TTITLE4=Randy Travis - If I Didnt Have You
TTITLE5=Confederate Railroad - Jesus and Mama
TTITLE6=John Anderson - Let Go Of The Stone
TTITLE7=Lee Roy Parnell - Love Without Mercy
TTITLE8=Sweethearts Of The Rodeo - Satisfy You
TTITLE9=Highway 101 - Setting Me Up
TTITLE10=Baillie Boys - She Deserves You
TTITLE11=Rob Crosby - she's A Natural
TTITLE12=Reba Mcentire - Sunday Kind Of Love
TTITLE13=Vince Gill - Take Your Memory With You
TTITLE14=K.D.Lang - Three Days
EXTD=
EXTT0=
EXTT1=
EXTT2=
EXTT3=
EXTT4=
EXTT5=
EXTT6=
EXTT7=
EXTT8=
EXTT9=
EXTT10=
EXTT11=
EXTT12=
EXTT13=
EXTT14=
PLAYORDER=
